<svg xmlns="http://www.w3.org/2000/svg" xml:space="preserve" viewBox="0 0 360 360"><path fill="#fff" d="M199 183a9 9 0 0 0-12 1l-3 6 3 6c25 23 31 56 33 73 0 4 4 8 8 8h1c4-1 8-5 7-9-1-20-8-57-37-85zm29 89c-2 0-4-1-4-4-1-17-7-51-34-75l-1-3c-1-1 0-2 1-3l3-2 3 2c28 26 35 62 36 81 1 2-1 4-3 4h-1zm11-76c-1-2-2-4-5-4h-6c-4 2-6 8-4 12 7 12 12 25 14 33a8 8 0 0 0 11 6c4-2 7-7 6-11-3-9-8-23-16-36zm9 43c-3 0-5-1-6-3-2-9-7-21-14-34-1-2 0-5 2-6h3l3 2c7 13 12 26 14 35 1 2 0 5-2 6zm-70-43c-3-4-1-11 3-16 3-4 11-10 21-4 3 2 7 5 10 10a9 9 0 0 0 15-5c1-2 0-4-2-6-4-6-9-10-14-13-15-9-31-7-43 6-10 12-12 28-3 38l3 5c9 11 25 29 27 54 1 5 4 8 9 8s8-5 8-9c-3-31-20-52-31-64l-3-4zm26 73c-2 0-4-2-4-4-3-26-19-46-29-57l-3-4c-7-9-5-22 4-33 6-7 13-10 21-10 5 0 11 1 16 4l13 12 1 4-1 2c-2 2-5 2-6 0-4-5-8-8-12-10-11-7-20-3-26 4s-8 16-3 21l3 4c10 13 28 33 30 62 0 3-2 5-4 5zm26-124a8 8 0 0 0-12 2c-3 4-2 9 2 12 11 9 21 22 30 37a9 9 0 0 0 15-8c-10-17-22-32-35-43zm30 51c-3 1-5 0-6-2-9-16-20-29-32-39-2-1-2-4-1-6l3-1h1l2 1c13 10 25 24 34 41 1 2 1 5-1 6zm-96 24c-14-15-17-33-8-50 10-16 28-25 45-21 5 1 9-2 10-6a8 8 0 0 0-6-10c-25-6-51 6-64 29a57 57 0 0 0 11 69c5 6 10 12 13 18a8 8 0 0 0 15-7c-4-8-9-15-16-22zm10 29c-2 2-4 1-5-1-4-7-8-14-14-20a52 52 0 0 1-10-64 55 55 0 0 1 59-27l3 2v3c0 2-3 4-5 3-19-4-39 5-49 23-11 18-8 39 8 54 6 7 11 14 15 22 1 2 1 4-2 5zm-7-138c-4 1-7 6-5 10 0 3 2 5 4 6h6a81 81 0 0 1 81 29c2 2 4 4 7 4l5-2 3-6c1-2 0-4-1-6l-6-7a96 96 0 0 0-94-28zm97 41-1 2c-2 2-5 2-6 0l-5-6a88 88 0 0 0-63-27l-18 2h-4l-2-3c0-2 1-4 3-5a93 93 0 0 1 96 33v4zm-114-12 2-1c4-3 4-9 1-12-2-4-8-5-11-2l-3 3c-32 27-39 75-17 105 2 2 5 3 7 3s4 0 5-2c4-2 5-8 2-11-17-24-11-61 14-83zm-18 91c-2 1-5 1-6-1-21-28-14-74 16-99l2-2 3-1 3 1c2 2 1 5-1 6l-2 2c-26 23-33 63-14 88 1 2 1 5-1 6zm101-121 17 11a8 8 0 0 0 12-1c2-1 2-3 2-6 0-2-1-4-3-5-6-6-13-10-20-14-4-2-10 0-12 4s0 9 4 11zm0-9c1-2 2-3 4-3l2 1c7 3 13 8 20 13l1 3-1 3c-1 1-4 2-6 0l-18-12c-2-1-3-3-2-5zm-92 16c21-15 47-20 72-14l6-1c2-2 4-3 4-6 1-2 0-4-1-6l-5-4a106 106 0 0 0-125 71v6a8 8 0 0 0 8 5c3 0 7-3 8-6 6-18 17-34 33-45zm-37 44c-1 2-3 3-5 2-2 0-2-1-3-2v-3a102 102 0 0 1 120-68l2 2 1 3-2 3h-3a93 93 0 0 0-110 63z"/></svg>